solid OpenSCAD_Model
  facet normal -1 0 0
    outer loop
      vertex 4 15 5
      vertex 4 34 30
      vertex 4 34 5
    endloop
  endfacet
  facet normal -1 -0 0
    outer loop
      vertex 4 34 30
      vertex 4 15 5
      vertex 4 15 30
    endloop
  endfacet
  facet normal 0 0 1
    outer loop
      vertex 5 34 30
      vertex 4 34 30
      vertex 5 20 30
    endloop
  endfacet
  facet normal 0 0 1
    outer loop
      vertex 80 20 30
      vertex 81 34 30
      vertex 80 34 30
    endloop
  endfacet
  facet normal 0 0 1
    outer loop
      vertex 81 34 30
      vertex 80 20 30
      vertex 81 15 30
    endloop
  endfacet
  facet normal -0 0 1
    outer loop
      vertex 5 20 30
      vertex 81 15 30
      vertex 80 20 30
    endloop
  endfacet
  facet normal 0 0 1
    outer loop
      vertex 5 20 30
      vertex 4 15 30
      vertex 81 15 30
    endloop
  endfacet
  facet normal 0 0 1
    outer loop
      vertex 4 15 30
      vertex 5 20 30
      vertex 4 34 30
    endloop
  endfacet
  facet normal 1 -0 0
    outer loop
      vertex 81 15 30
      vertex 81 34 5
      vertex 81 34 30
    endloop
  endfacet
  facet normal 1 0 0
    outer loop
      vertex 81 34 5
      vertex 81 15 30
      vertex 81 15 5
    endloop
  endfacet
  facet normal 0 0 1
    outer loop
      vertex 85 74.1184 5
      vertex 81 34 5
      vertex 85 0 5
    endloop
  endfacet
  facet normal 0 0 1
    outer loop
      vertex 85 74.1184 5
      vertex 4 34 5
      vertex 81 34 5
    endloop
  endfacet
  facet normal 0 0 1
    outer loop
      vertex 0 0 5
      vertex 4 34 5
      vertex 0 74.1184 5
    endloop
  endfacet
  facet normal -0 0 1
    outer loop
      vertex 0 74.1184 5
      vertex 4 34 5
      vertex 85 74.1184 5
    endloop
  endfacet
  facet normal -0 0 1
    outer loop
      vertex 81 15 5
      vertex 85 0 5
      vertex 81 34 5
    endloop
  endfacet
  facet normal -0 0 1
    outer loop
      vertex 4 15 5
      vertex 85 0 5
      vertex 81 15 5
    endloop
  endfacet
  facet normal 0 0 1
    outer loop
      vertex 4 15 5
      vertex 0 0 5
      vertex 85 0 5
    endloop
  endfacet
  facet normal 0 0 1
    outer loop
      vertex 4 34 5
      vertex 0 0 5
      vertex 4 15 5
    endloop
  endfacet
  facet normal 0 -1 0
    outer loop
      vertex 4 15 5
      vertex 81 15 30
      vertex 4 15 30
    endloop
  endfacet
  facet normal 0 -1 -0
    outer loop
      vertex 81 15 30
      vertex 4 15 5
      vertex 81 15 5
    endloop
  endfacet
  facet normal 0 1 0
    outer loop
      vertex 81 34 30
      vertex 80 34 10
      vertex 80 34 30
    endloop
  endfacet
  facet normal 0 1 0
    outer loop
      vertex 80 34 10
      vertex 81 34 5
      vertex 5 34 10
    endloop
  endfacet
  facet normal 0 1 -0
    outer loop
      vertex 81 34 5
      vertex 80 34 10
      vertex 81 34 30
    endloop
  endfacet
  facet normal 0 1 -0
    outer loop
      vertex 5 34 10
      vertex 4 34 30
      vertex 5 34 30
    endloop
  endfacet
  facet normal 0 1 0
    outer loop
      vertex 5 34 10
      vertex 4 34 5
      vertex 4 34 30
    endloop
  endfacet
  facet normal 0 1 0
    outer loop
      vertex 4 34 5
      vertex 5 34 10
      vertex 81 34 5
    endloop
  endfacet
  facet normal 1 -0 0
    outer loop
      vertex 5 20 30
      vertex 5 34 10
      vertex 5 34 30
    endloop
  endfacet
  facet normal 1 0 0
    outer loop
      vertex 5 34 10
      vertex 5 20 30
      vertex 5 20 10
    endloop
  endfacet
  facet normal -1 0 0
    outer loop
      vertex 80 20 10
      vertex 80 34 30
      vertex 80 34 10
    endloop
  endfacet
  facet normal -1 -0 0
    outer loop
      vertex 80 34 30
      vertex 80 20 10
      vertex 80 20 30
    endloop
  endfacet
  facet normal -0 0 1
    outer loop
      vertex 5 34 10
      vertex 80 20 10
      vertex 80 34 10
    endloop
  endfacet
  facet normal 0 0 1
    outer loop
      vertex 80 20 10
      vertex 5 34 10
      vertex 5 20 10
    endloop
  endfacet
  facet normal 0 1 -0
    outer loop
      vertex 80 20 10
      vertex 5 20 30
      vertex 80 20 30
    endloop
  endfacet
  facet normal 0 1 0
    outer loop
      vertex 5 20 30
      vertex 80 20 10
      vertex 5 20 10
    endloop
  endfacet
  facet normal -1 0 0
    outer loop
      vertex 0 80 0
      vertex 0 74.1184 5
      vertex 0 80 1.81985
    endloop
  endfacet
  facet normal -1 0 0
    outer loop
      vertex 0 0 0
      vertex 0 74.1184 5
      vertex 0 80 0
    endloop
  endfacet
  facet normal -1 -0 0
    outer loop
      vertex 0 74.1184 5
      vertex 0 0 0
      vertex 0 0 5
    endloop
  endfacet
  facet normal -1 0 0
    outer loop
      vertex 0 80 1.81985
      vertex 0 167.259 38.9005
      vertex 0 168.969 34.202
    endloop
  endfacet
  facet normal -1 0 0
    outer loop
      vertex 0 167.259 38.9005
      vertex 0 80 1.81985
      vertex 0 74.1184 5
    endloop
  endfacet
  facet normal 1 0 0
    outer loop
      vertex 85 167.259 38.9005
      vertex 85 80 1.81985
      vertex 85 168.969 34.202
    endloop
  endfacet
  facet normal 1 -0 0
    outer loop
      vertex 85 74.1184 5
      vertex 85 80 1.81985
      vertex 85 167.259 38.9005
    endloop
  endfacet
  facet normal 1 0 0
    outer loop
      vertex 85 74.1184 5
      vertex 85 80 0
      vertex 85 80 1.81985
    endloop
  endfacet
  facet normal 1 0 0
    outer loop
      vertex 85 0 0
      vertex 85 74.1184 5
      vertex 85 0 5
    endloop
  endfacet
  facet normal 1 0 0
    outer loop
      vertex 85 74.1184 5
      vertex 85 0 0
      vertex 85 80 0
    endloop
  endfacet
  facet normal 0 1 -0
    outer loop
      vertex 85 80 0
      vertex 0 80 1.81985
      vertex 85 80 1.81985
    endloop
  endfacet
  facet normal 0 1 0
    outer loop
      vertex 0 80 1.81985
      vertex 85 80 0
      vertex 0 80 0
    endloop
  endfacet
  facet normal 0 0 -1
    outer loop
      vertex 49.8559 26.4632 0
      vertex 85 0 0
      vertex 50 25 0
    endloop
  endfacet
  facet normal 0 0 -1
    outer loop
      vertex 85 0 0
      vertex 49.8559 23.5368 0
      vertex 50 25 0
    endloop
  endfacet
  facet normal 0 0 -1
    outer loop
      vertex 85 0 0
      vertex 49.4291 22.1299 0
      vertex 49.8559 23.5368 0
    endloop
  endfacet
  facet normal 0 0 -1
    outer loop
      vertex 85 0 0
      vertex 48.736 20.8332 0
      vertex 49.4291 22.1299 0
    endloop
  endfacet
  facet normal 0 0 -1
    outer loop
      vertex 85 0 0
      vertex 47.8033 19.6967 0
      vertex 48.736 20.8332 0
    endloop
  endfacet
  facet normal 0 0 -1
    outer loop
      vertex 85 0 0
      vertex 46.6668 18.764 0
      vertex 47.8033 19.6967 0
    endloop
  endfacet
  facet normal 0 0 -1
    outer loop
      vertex 85 0 0
      vertex 45.3701 18.0709 0
      vertex 46.6668 18.764 0
    endloop
  endfacet
  facet normal 0 0 -1
    outer loop
      vertex 85 0 0
      vertex 43.9632 17.6441 0
      vertex 45.3701 18.0709 0
    endloop
  endfacet
  facet normal 0 0 -1
    outer loop
      vertex 85 0 0
      vertex 42.5 17.5 0
      vertex 43.9632 17.6441 0
    endloop
  endfacet
  facet normal 0 0 -1
    outer loop
      vertex 0 0 0
      vertex 42.5 17.5 0
      vertex 85 0 0
    endloop
  endfacet
  facet normal -0 0 -1
    outer loop
      vertex 42.5 17.5 0
      vertex 0 0 0
      vertex 41.0368 17.6441 0
    endloop
  endfacet
  facet normal -0 0 -1
    outer loop
      vertex 35.1441 23.5368 0
      vertex 0 0 0
      vertex 35 25 0
    endloop
  endfacet
  facet normal -0 0 -1
    outer loop
      vertex 35.5709 22.1299 0
      vertex 0 0 0
      vertex 35.1441 23.5368 0
    endloop
  endfacet
  facet normal -0 0 -1
    outer loop
      vertex 36.264 20.8332 0
      vertex 0 0 0
      vertex 35.5709 22.1299 0
    endloop
  endfacet
  facet normal -0 0 -1
    outer loop
      vertex 37.1967 19.6967 0
      vertex 0 0 0
      vertex 36.264 20.8332 0
    endloop
  endfacet
  facet normal -0 0 -1
    outer loop
      vertex 38.3332 18.764 0
      vertex 0 0 0
      vertex 37.1967 19.6967 0
    endloop
  endfacet
  facet normal -0 0 -1
    outer loop
      vertex 39.6299 18.0709 0
      vertex 0 0 0
      vertex 38.3332 18.764 0
    endloop
  endfacet
  facet normal -0 0 -1
    outer loop
      vertex 41.0368 17.6441 0
      vertex 0 0 0
      vertex 39.6299 18.0709 0
    endloop
  endfacet
  facet normal 0 0 -1
    outer loop
      vertex 49.4291 27.8701 0
      vertex 85 0 0
      vertex 49.8559 26.4632 0
    endloop
  endfacet
  facet normal 0 0 -1
    outer loop
      vertex 85 0 0
      vertex 49.4291 27.8701 0
      vertex 85 80 0
    endloop
  endfacet
  facet normal 0 0 -1
    outer loop
      vertex 48.736 29.1668 0
      vertex 85 80 0
      vertex 49.4291 27.8701 0
    endloop
  endfacet
  facet normal 0 0 -1
    outer loop
      vertex 47.8033 30.3033 0
      vertex 85 80 0
      vertex 48.736 29.1668 0
    endloop
  endfacet
  facet normal 0 0 -1
    outer loop
      vertex 46.6668 31.236 0
      vertex 85 80 0
      vertex 47.8033 30.3033 0
    endloop
  endfacet
  facet normal 0 0 -1
    outer loop
      vertex 45.3701 31.9291 0
      vertex 85 80 0
      vertex 46.6668 31.236 0
    endloop
  endfacet
  facet normal 0 0 -1
    outer loop
      vertex 43.9632 32.3559 0
      vertex 85 80 0
      vertex 45.3701 31.9291 0
    endloop
  endfacet
  facet normal 0 0 -1
    outer loop
      vertex 42.5 32.5 0
      vertex 85 80 0
      vertex 43.9632 32.3559 0
    endloop
  endfacet
  facet normal 0 0 -1
    outer loop
      vertex 0 80 0
      vertex 42.5 32.5 0
      vertex 41.0368 32.3559 0
    endloop
  endfacet
  facet normal 0 0 -1
    outer loop
      vertex 0 80 0
      vertex 41.0368 32.3559 0
      vertex 39.6299 31.9291 0
    endloop
  endfacet
  facet normal 0 0 -1
    outer loop
      vertex 0 80 0
      vertex 39.6299 31.9291 0
      vertex 38.3332 31.236 0
    endloop
  endfacet
  facet normal 0 0 -1
    outer loop
      vertex 0 80 0
      vertex 38.3332 31.236 0
      vertex 37.1967 30.3033 0
    endloop
  endfacet
  facet normal 0 0 -1
    outer loop
      vertex 0 0 0
      vertex 35.1441 26.4632 0
      vertex 35 25 0
    endloop
  endfacet
  facet normal 0 0 -1
    outer loop
      vertex 0 0 0
      vertex 35.5709 27.8701 0
      vertex 35.1441 26.4632 0
    endloop
  endfacet
  facet normal 0 0 -1
    outer loop
      vertex 0 80 0
      vertex 35.5709 27.8701 0
      vertex 0 0 0
    endloop
  endfacet
  facet normal 0 0 -1
    outer loop
      vertex 35.5709 27.8701 0
      vertex 0 80 0
      vertex 36.264 29.1668 0
    endloop
  endfacet
  facet normal 0 0 -1
    outer loop
      vertex 36.264 29.1668 0
      vertex 0 80 0
      vertex 37.1967 30.3033 0
    endloop
  endfacet
  facet normal 0 0 -1
    outer loop
      vertex 42.5 32.5 0
      vertex 0 80 0
      vertex 85 80 0
    endloop
  endfacet
  facet normal 0 -1 0
    outer loop
      vertex 0 0 0
      vertex 85 0 5
      vertex 0 0 5
    endloop
  endfacet
  facet normal 0 -1 -0
    outer loop
      vertex 85 0 5
      vertex 0 0 0
      vertex 85 0 0
    endloop
  endfacet
  facet normal 0 -0.342021 0.939692
    outer loop
      vertex 0 167.259 38.9005
      vertex 85 74.1184 5
      vertex 85 167.259 38.9005
    endloop
  endfacet
  facet normal 0 -0.342021 0.939692
    outer loop
      vertex 85 74.1184 5
      vertex 0 167.259 38.9005
      vertex 0 74.1184 5
    endloop
  endfacet
  facet normal 0 0.9397 0.342
    outer loop
      vertex 85 168.969 34.202
      vertex 0 167.259 38.9005
      vertex 85 167.259 38.9005
    endloop
  endfacet
  facet normal 0 0.9397 0.342
    outer loop
      vertex 0 167.259 38.9005
      vertex 85 168.969 34.202
      vertex 0 168.969 34.202
    endloop
  endfacet
  facet normal 0 0.342021 -0.939692
    outer loop
      vertex 0 80 1.81985
      vertex 85 168.969 34.202
      vertex 85 80 1.81985
    endloop
  endfacet
  facet normal 0 0.342021 -0.939692
    outer loop
      vertex 85 168.969 34.202
      vertex 0 80 1.81985
      vertex 0 168.969 34.202
    endloop
  endfacet
  facet normal -0.995186 -0.0980086 0
    outer loop
      vertex 50 25 0
      vertex 49.8559 26.4632 6
      vertex 49.8559 26.4632 0
    endloop
  endfacet
  facet normal -0.995186 -0.0980086 0
    outer loop
      vertex 49.8559 26.4632 6
      vertex 50 25 0
      vertex 50 25 6
    endloop
  endfacet
  facet normal 0.0980086 -0.995186 0
    outer loop
      vertex 41.0368 32.3559 0
      vertex 42.5 32.5 6
      vertex 41.0368 32.3559 6
    endloop
  endfacet
  facet normal 0.0980086 -0.995186 0
    outer loop
      vertex 42.5 32.5 6
      vertex 41.0368 32.3559 0
      vertex 42.5 32.5 0
    endloop
  endfacet
  facet normal -0.0980086 0.995186 0
    outer loop
      vertex 43.9632 17.6441 0
      vertex 42.5 17.5 6
      vertex 43.9632 17.6441 6
    endloop
  endfacet
  facet normal -0.0980086 0.995186 0
    outer loop
      vertex 42.5 17.5 6
      vertex 43.9632 17.6441 0
      vertex 42.5 17.5 0
    endloop
  endfacet
  facet normal -0.634393 -0.773011 0
    outer loop
      vertex 46.6668 31.236 0
      vertex 47.8033 30.3033 6
      vertex 46.6668 31.236 6
    endloop
  endfacet
  facet normal -0.634393 -0.773011 -0
    outer loop
      vertex 47.8033 30.3033 6
      vertex 46.6668 31.236 0
      vertex 47.8033 30.3033 0
    endloop
  endfacet
  facet normal 0.773011 -0.634393 0
    outer loop
      vertex 36.264 29.1668 6
      vertex 37.1967 30.3033 0
      vertex 37.1967 30.3033 6
    endloop
  endfacet
  facet normal 0.773011 -0.634393 0
    outer loop
      vertex 37.1967 30.3033 0
      vertex 36.264 29.1668 6
      vertex 36.264 29.1668 0
    endloop
  endfacet
  facet normal 0.471396 -0.881921 0
    outer loop
      vertex 38.3332 31.236 0
      vertex 39.6299 31.9291 6
      vertex 38.3332 31.236 6
    endloop
  endfacet
  facet normal 0.471396 -0.881921 0
    outer loop
      vertex 39.6299 31.9291 6
      vertex 38.3332 31.236 0
      vertex 39.6299 31.9291 0
    endloop
  endfacet
  facet normal -0.773011 0.634393 0
    outer loop
      vertex 47.8033 19.6967 0
      vertex 48.736 20.8332 6
      vertex 48.736 20.8332 0
    endloop
  endfacet
  facet normal -0.773011 0.634393 0
    outer loop
      vertex 48.736 20.8332 6
      vertex 47.8033 19.6967 0
      vertex 47.8033 19.6967 6
    endloop
  endfacet
  facet normal -0.881921 -0.471396 0
    outer loop
      vertex 49.4291 27.8701 0
      vertex 48.736 29.1668 6
      vertex 48.736 29.1668 0
    endloop
  endfacet
  facet normal -0.881921 -0.471396 0
    outer loop
      vertex 48.736 29.1668 6
      vertex 49.4291 27.8701 0
      vertex 49.4291 27.8701 6
    endloop
  endfacet
  facet normal -0.956936 -0.290298 0
    outer loop
      vertex 49.8559 26.4632 0
      vertex 49.4291 27.8701 6
      vertex 49.4291 27.8701 0
    endloop
  endfacet
  facet normal -0.956936 -0.290298 0
    outer loop
      vertex 49.4291 27.8701 6
      vertex 49.8559 26.4632 0
      vertex 49.8559 26.4632 6
    endloop
  endfacet
  facet normal -0.773011 -0.634393 0
    outer loop
      vertex 48.736 29.1668 0
      vertex 47.8033 30.3033 6
      vertex 47.8033 30.3033 0
    endloop
  endfacet
  facet normal -0.773011 -0.634393 0
    outer loop
      vertex 47.8033 30.3033 6
      vertex 48.736 29.1668 0
      vertex 48.736 29.1668 6
    endloop
  endfacet
  facet normal -0.290298 -0.956936 0
    outer loop
      vertex 43.9632 32.3559 0
      vertex 45.3701 31.9291 6
      vertex 43.9632 32.3559 6
    endloop
  endfacet
  facet normal -0.290298 -0.956936 -0
    outer loop
      vertex 45.3701 31.9291 6
      vertex 43.9632 32.3559 0
      vertex 45.3701 31.9291 0
    endloop
  endfacet
  facet normal -0.0980086 -0.995186 0
    outer loop
      vertex 42.5 32.5 0
      vertex 43.9632 32.3559 6
      vertex 42.5 32.5 6
    endloop
  endfacet
  facet normal -0.0980086 -0.995186 -0
    outer loop
      vertex 43.9632 32.3559 6
      vertex 42.5 32.5 0
      vertex 43.9632 32.3559 0
    endloop
  endfacet
  facet normal -0.471396 -0.881921 0
    outer loop
      vertex 45.3701 31.9291 0
      vertex 46.6668 31.236 6
      vertex 45.3701 31.9291 6
    endloop
  endfacet
  facet normal -0.471396 -0.881921 -0
    outer loop
      vertex 46.6668 31.236 6
      vertex 45.3701 31.9291 0
      vertex 46.6668 31.236 0
    endloop
  endfacet
  facet normal 0.956936 -0.290298 0
    outer loop
      vertex 35.1441 26.4632 6
      vertex 35.5709 27.8701 0
      vertex 35.5709 27.8701 6
    endloop
  endfacet
  facet normal 0.956936 -0.290298 0
    outer loop
      vertex 35.5709 27.8701 0
      vertex 35.1441 26.4632 6
      vertex 35.1441 26.4632 0
    endloop
  endfacet
  facet normal 0.881921 -0.471396 0
    outer loop
      vertex 35.5709 27.8701 6
      vertex 36.264 29.1668 0
      vertex 36.264 29.1668 6
    endloop
  endfacet
  facet normal 0.881921 -0.471396 0
    outer loop
      vertex 36.264 29.1668 0
      vertex 35.5709 27.8701 6
      vertex 35.5709 27.8701 0
    endloop
  endfacet
  facet normal 0.995186 -0.0980086 0
    outer loop
      vertex 35 25 6
      vertex 35.1441 26.4632 0
      vertex 35.1441 26.4632 6
    endloop
  endfacet
  facet normal 0.995186 -0.0980086 0
    outer loop
      vertex 35.1441 26.4632 0
      vertex 35 25 6
      vertex 35 25 0
    endloop
  endfacet
  facet normal 0 0 -1
    outer loop
      vertex 49.8559 23.5368 6
      vertex 49.8559 26.4632 6
      vertex 50 25 6
    endloop
  endfacet
  facet normal 0 0 -1
    outer loop
      vertex 49.4291 22.1299 6
      vertex 49.8559 26.4632 6
      vertex 49.8559 23.5368 6
    endloop
  endfacet
  facet normal 0 0 -1
    outer loop
      vertex 49.4291 22.1299 6
      vertex 49.4291 27.8701 6
      vertex 49.8559 26.4632 6
    endloop
  endfacet
  facet normal 0 0 -1
    outer loop
      vertex 48.736 20.8332 6
      vertex 49.4291 27.8701 6
      vertex 49.4291 22.1299 6
    endloop
  endfacet
  facet normal 0 0 -1
    outer loop
      vertex 48.736 20.8332 6
      vertex 48.736 29.1668 6
      vertex 49.4291 27.8701 6
    endloop
  endfacet
  facet normal 0 0 -1
    outer loop
      vertex 47.8033 19.6967 6
      vertex 48.736 29.1668 6
      vertex 48.736 20.8332 6
    endloop
  endfacet
  facet normal 0 0 -1
    outer loop
      vertex 47.8033 19.6967 6
      vertex 47.8033 30.3033 6
      vertex 48.736 29.1668 6
    endloop
  endfacet
  facet normal 0 0 -1
    outer loop
      vertex 46.6668 18.764 6
      vertex 47.8033 30.3033 6
      vertex 47.8033 19.6967 6
    endloop
  endfacet
  facet normal 0 0 -1
    outer loop
      vertex 46.6668 18.764 6
      vertex 46.6668 31.236 6
      vertex 47.8033 30.3033 6
    endloop
  endfacet
  facet normal 0 0 -1
    outer loop
      vertex 45.3701 18.0709 6
      vertex 46.6668 31.236 6
      vertex 46.6668 18.764 6
    endloop
  endfacet
  facet normal 0 0 -1
    outer loop
      vertex 45.3701 18.0709 6
      vertex 45.3701 31.9291 6
      vertex 46.6668 31.236 6
    endloop
  endfacet
  facet normal 0 0 -1
    outer loop
      vertex 43.9632 17.6441 6
      vertex 45.3701 31.9291 6
      vertex 45.3701 18.0709 6
    endloop
  endfacet
  facet normal 0 0 -1
    outer loop
      vertex 43.9632 17.6441 6
      vertex 43.9632 32.3559 6
      vertex 45.3701 31.9291 6
    endloop
  endfacet
  facet normal 0 0 -1
    outer loop
      vertex 42.5 17.5 6
      vertex 43.9632 32.3559 6
      vertex 43.9632 17.6441 6
    endloop
  endfacet
  facet normal 0 0 -1
    outer loop
      vertex 42.5 17.5 6
      vertex 42.5 32.5 6
      vertex 43.9632 32.3559 6
    endloop
  endfacet
  facet normal 0 0 -1
    outer loop
      vertex 41.0368 17.6441 6
      vertex 42.5 32.5 6
      vertex 42.5 17.5 6
    endloop
  endfacet
  facet normal 0 0 -1
    outer loop
      vertex 41.0368 17.6441 6
      vertex 41.0368 32.3559 6
      vertex 42.5 32.5 6
    endloop
  endfacet
  facet normal 0 0 -1
    outer loop
      vertex 39.6299 18.0709 6
      vertex 41.0368 32.3559 6
      vertex 41.0368 17.6441 6
    endloop
  endfacet
  facet normal 0 0 -1
    outer loop
      vertex 39.6299 18.0709 6
      vertex 39.6299 31.9291 6
      vertex 41.0368 32.3559 6
    endloop
  endfacet
  facet normal 0 0 -1
    outer loop
      vertex 38.3332 18.764 6
      vertex 39.6299 31.9291 6
      vertex 39.6299 18.0709 6
    endloop
  endfacet
  facet normal 0 0 -1
    outer loop
      vertex 38.3332 18.764 6
      vertex 38.3332 31.236 6
      vertex 39.6299 31.9291 6
    endloop
  endfacet
  facet normal 0 0 -1
    outer loop
      vertex 37.1967 19.6967 6
      vertex 38.3332 31.236 6
      vertex 38.3332 18.764 6
    endloop
  endfacet
  facet normal 0 0 -1
    outer loop
      vertex 37.1967 19.6967 6
      vertex 37.1967 30.3033 6
      vertex 38.3332 31.236 6
    endloop
  endfacet
  facet normal 0 0 -1
    outer loop
      vertex 36.264 20.8332 6
      vertex 37.1967 30.3033 6
      vertex 37.1967 19.6967 6
    endloop
  endfacet
  facet normal 0 0 -1
    outer loop
      vertex 36.264 20.8332 6
      vertex 36.264 29.1668 6
      vertex 37.1967 30.3033 6
    endloop
  endfacet
  facet normal 0 0 -1
    outer loop
      vertex 35.5709 22.1299 6
      vertex 36.264 29.1668 6
      vertex 36.264 20.8332 6
    endloop
  endfacet
  facet normal 0 0 -1
    outer loop
      vertex 35.5709 22.1299 6
      vertex 35.5709 27.8701 6
      vertex 36.264 29.1668 6
    endloop
  endfacet
  facet normal 0 0 -1
    outer loop
      vertex 35.1441 23.5368 6
      vertex 35.5709 27.8701 6
      vertex 35.5709 22.1299 6
    endloop
  endfacet
  facet normal 0 0 -1
    outer loop
      vertex 35.1441 23.5368 6
      vertex 35.1441 26.4632 6
      vertex 35.5709 27.8701 6
    endloop
  endfacet
  facet normal 0 -0 -1
    outer loop
      vertex 35.1441 26.4632 6
      vertex 35.1441 23.5368 6
      vertex 35 25 6
    endloop
  endfacet
  facet normal 0.634393 -0.773011 0
    outer loop
      vertex 37.1967 30.3033 0
      vertex 38.3332 31.236 6
      vertex 37.1967 30.3033 6
    endloop
  endfacet
  facet normal 0.634393 -0.773011 0
    outer loop
      vertex 38.3332 31.236 6
      vertex 37.1967 30.3033 0
      vertex 38.3332 31.236 0
    endloop
  endfacet
  facet normal 0.290298 -0.956936 0
    outer loop
      vertex 39.6299 31.9291 0
      vertex 41.0368 32.3559 6
      vertex 39.6299 31.9291 6
    endloop
  endfacet
  facet normal 0.290298 -0.956936 0
    outer loop
      vertex 41.0368 32.3559 6
      vertex 39.6299 31.9291 0
      vertex 41.0368 32.3559 0
    endloop
  endfacet
  facet normal -0.995186 0.0980086 0
    outer loop
      vertex 49.8559 23.5368 0
      vertex 50 25 6
      vertex 50 25 0
    endloop
  endfacet
  facet normal -0.995186 0.0980086 0
    outer loop
      vertex 50 25 6
      vertex 49.8559 23.5368 0
      vertex 49.8559 23.5368 6
    endloop
  endfacet
  facet normal -0.290298 0.956936 0
    outer loop
      vertex 45.3701 18.0709 0
      vertex 43.9632 17.6441 6
      vertex 45.3701 18.0709 6
    endloop
  endfacet
  facet normal -0.290298 0.956936 0
    outer loop
      vertex 43.9632 17.6441 6
      vertex 45.3701 18.0709 0
      vertex 43.9632 17.6441 0
    endloop
  endfacet
  facet normal -0.634393 0.773011 0
    outer loop
      vertex 47.8033 19.6967 0
      vertex 46.6668 18.764 6
      vertex 47.8033 19.6967 6
    endloop
  endfacet
  facet normal -0.634393 0.773011 0
    outer loop
      vertex 46.6668 18.764 6
      vertex 47.8033 19.6967 0
      vertex 46.6668 18.764 0
    endloop
  endfacet
  facet normal 0.471396 0.881921 -0
    outer loop
      vertex 39.6299 18.0709 0
      vertex 38.3332 18.764 6
      vertex 39.6299 18.0709 6
    endloop
  endfacet
  facet normal 0.471396 0.881921 0
    outer loop
      vertex 38.3332 18.764 6
      vertex 39.6299 18.0709 0
      vertex 38.3332 18.764 0
    endloop
  endfacet
  facet normal 0.0980086 0.995186 -0
    outer loop
      vertex 42.5 17.5 0
      vertex 41.0368 17.6441 6
      vertex 42.5 17.5 6
    endloop
  endfacet
  facet normal 0.0980086 0.995186 0
    outer loop
      vertex 41.0368 17.6441 6
      vertex 42.5 17.5 0
      vertex 41.0368 17.6441 0
    endloop
  endfacet
  facet normal 0.773011 0.634393 0
    outer loop
      vertex 37.1967 19.6967 6
      vertex 36.264 20.8332 0
      vertex 36.264 20.8332 6
    endloop
  endfacet
  facet normal 0.773011 0.634393 0
    outer loop
      vertex 36.264 20.8332 0
      vertex 37.1967 19.6967 6
      vertex 37.1967 19.6967 0
    endloop
  endfacet
  facet normal 0.634393 0.773011 -0
    outer loop
      vertex 38.3332 18.764 0
      vertex 37.1967 19.6967 6
      vertex 38.3332 18.764 6
    endloop
  endfacet
  facet normal 0.634393 0.773011 0
    outer loop
      vertex 37.1967 19.6967 6
      vertex 38.3332 18.764 0
      vertex 37.1967 19.6967 0
    endloop
  endfacet
  facet normal 0.956936 0.290298 0
    outer loop
      vertex 35.5709 22.1299 6
      vertex 35.1441 23.5368 0
      vertex 35.1441 23.5368 6
    endloop
  endfacet
  facet normal 0.956936 0.290298 0
    outer loop
      vertex 35.1441 23.5368 0
      vertex 35.5709 22.1299 6
      vertex 35.5709 22.1299 0
    endloop
  endfacet
  facet normal 0.995186 0.0980086 0
    outer loop
      vertex 35.1441 23.5368 6
      vertex 35 25 0
      vertex 35 25 6
    endloop
  endfacet
  facet normal 0.995186 0.0980086 0
    outer loop
      vertex 35 25 0
      vertex 35.1441 23.5368 6
      vertex 35.1441 23.5368 0
    endloop
  endfacet
  facet normal -0.471396 0.881921 0
    outer loop
      vertex 46.6668 18.764 0
      vertex 45.3701 18.0709 6
      vertex 46.6668 18.764 6
    endloop
  endfacet
  facet normal -0.471396 0.881921 0
    outer loop
      vertex 45.3701 18.0709 6
      vertex 46.6668 18.764 0
      vertex 45.3701 18.0709 0
    endloop
  endfacet
  facet normal -0.956936 0.290298 0
    outer loop
      vertex 49.4291 22.1299 0
      vertex 49.8559 23.5368 6
      vertex 49.8559 23.5368 0
    endloop
  endfacet
  facet normal -0.956936 0.290298 0
    outer loop
      vertex 49.8559 23.5368 6
      vertex 49.4291 22.1299 0
      vertex 49.4291 22.1299 6
    endloop
  endfacet
  facet normal -0.881921 0.471396 0
    outer loop
      vertex 48.736 20.8332 0
      vertex 49.4291 22.1299 6
      vertex 49.4291 22.1299 0
    endloop
  endfacet
  facet normal -0.881921 0.471396 0
    outer loop
      vertex 49.4291 22.1299 6
      vertex 48.736 20.8332 0
      vertex 48.736 20.8332 6
    endloop
  endfacet
  facet normal 0.290298 0.956936 -0
    outer loop
      vertex 41.0368 17.6441 0
      vertex 39.6299 18.0709 6
      vertex 41.0368 17.6441 6
    endloop
  endfacet
  facet normal 0.290298 0.956936 0
    outer loop
      vertex 39.6299 18.0709 6
      vertex 41.0368 17.6441 0
      vertex 39.6299 18.0709 0
    endloop
  endfacet
  facet normal 0.881921 0.471396 0
    outer loop
      vertex 36.264 20.8332 6
      vertex 35.5709 22.1299 0
      vertex 35.5709 22.1299 6
    endloop
  endfacet
  facet normal 0.881921 0.471396 0
    outer loop
      vertex 35.5709 22.1299 0
      vertex 36.264 20.8332 6
      vertex 36.264 20.8332 0
    endloop
  endfacet
endsolid OpenSCAD_Model
